<?xml version="1.0" encoding="UTF-8" standalone="no"?>
<svg
   xmlns:dc="http://purl.org/dc/elements/1.1/"
   xmlns:cc="http://creativecommons.org/ns#"
   xmlns:rdf="http://www.w3.org/1999/02/22-rdf-syntax-ns#"
   xmlns:svg="http://www.w3.org/2000/svg"
   xmlns="http://www.w3.org/2000/svg"
   viewBox="0 0 982.69336 569.30664"
   height="569.30664"
   width="982.69336"
   xml:space="preserve"
   id="svg2"
   version="1.1"><metadata
     id="metadata8"><rdf:RDF><cc:Work
         rdf:about=""><dc:format>image/svg+xml</dc:format><dc:type
           rdf:resource="http://purl.org/dc/dcmitype/StillImage" /></cc:Work></rdf:RDF></metadata><defs
     id="defs6"><clipPath
       id="clipPath20"
       clipPathUnits="userSpaceOnUse"><path
         id="path18"
         d="M 0,0 H 7370 V 4269.85 H 0 Z" /></clipPath></defs><g
     transform="matrix(1.3333333,0,0,-1.3333333,0,569.30667)"
     id="g10"><g
       transform="scale(0.1)"
       id="g12"><g
         id="g14"><g
           clip-path="url(#clipPath20)"
           id="g16"><path
             id="path22"
             style="fill:#121110;fill-opacity:1;fill-rule:nonzero;stroke:none"
             d="m 3498.66,481.07 c 0,-81.711 -66.78,-148.422 -148.42,-148.422 H 482.645 c -81.707,0 -148.469,66.711 -148.469,148.422 v 1649.21 c 0,81.71 66.762,148.53 148.469,148.53 H 3350.24 c 81.64,0 148.42,-66.82 148.42,-148.53 z M 6998.83,4269.85 H 371.305 C 167.129,4269.85 0,4102.81 0,3898.55 V 371.328 C 0,167.031 167.129,0 371.305,0 H 6998.83 c 204.23,0 371.33,167.031 371.33,371.328 V 3898.55 c 0,204.26 -167.1,371.3 -371.33,371.3" /></g></g></g></g></svg>