<?xml version="1.0" encoding="utf-8"?>
<!-- Generator: Adobe Illustrator 21.1.0, SVG Export Plug-In . SVG Version: 6.00 Build 0)  -->
<svg version="1.1" id="hs_logo_svg" xmlns="http://www.w3.org/2000/svg" xmlns:xlink="http://www.w3.org/1999/xlink" x="0px" y="0px"
	 viewBox="0 0 1662 720" style="enable-background:new 0 0 1662 720;" xml:space="preserve">
<style type="text/css">
	.st0{fill:#F9F7E2;}
	.st1{fill:#F9D82F;}
	.st2{fill:#F7EC91;}
	.st3{fill:none;}
</style>
<g>
	<path d="M1087.6,183c-3.2-0.3-6.4-0.4-9.7-0.4c-6.3,0-12.4,0.5-18.3,1.5c-41.1,6.7-69.6,35.5-79.1,72.4v0c-2.3,9-3.5,18.5-3.5,28.3
		c0.1,46.7,28,86.9,73.7,98.4c2.9,0.7,5.9,1.4,8.9,1.9c6,1,12.2,1.5,18.7,1.5h0.1c3.1,0,6.1-0.1,9.1-0.4
		c36.6-2.9,64.8-22.5,80.1-50.3c0,0,0,0,0,0c8.4-15.2,12.9-32.9,12.9-51.5C1180.4,231.7,1144,187.4,1087.6,183z M1078.4,362.8
		c-19.8,0-37.9-7.5-51.5-19.9c-0.1,0-0.1-0.1-0.2-0.2c-2-1.8-3.9-3.8-5.7-5.8c0,0,0,0,0,0c-4.4-4.6-8-10-10.8-15.8
		c0,0-0.1-0.1-0.1-0.2c-5.3-10.4-8.3-22.2-8.3-34.7c0-11.4,2.5-22.2,6.9-31.9c12.1-26.4,38.7-44.7,69.7-44.7
		c42.3,0,76.6,34.3,76.6,76.6C1155,328.5,1120.7,362.8,1078.4,362.8z"/>
</g>
<path class="st0" d="M1095.2,309.6c0,21.1-13.5,39-32.4,45.6c-3.8,1.3-7.9,2.2-12,2.5c-8.8-3.4-16.9-8.5-23.7-14.7
	c-0.1,0-0.1-0.1-0.2-0.2c-2-1.8-3.9-3.8-5.7-5.8c0,0,0,0,0,0c0,0,0,0,0,0c-2.2-2.4-4.3-4.9-6.1-7.6c-0.1-0.2-0.3-0.4-0.4-0.6
	c-0.3-0.4-0.5-0.8-0.8-1.2c-0.3-0.5-0.6-1-0.9-1.5c-0.4-0.7-0.8-1.4-1.2-2.1c-0.2-0.4-0.4-0.7-0.6-1.1c-0.3-0.5-0.5-1.1-0.8-1.6
	c0,0-0.1-0.1-0.1-0.2c-4.5-8.8-7.4-18.7-8.1-29.1c1.1-2.7,2.4-5.4,4-7.8c8.5-13.6,23.7-22.6,40.9-22.6
	C1073.6,261.4,1095.2,283,1095.2,309.6z"/>
<g>
	<g>
		<path class="st1" d="M1078.5,209.6c-30.9,0-57.6,18.3-69.7,44.7c-4.5,9.7-7,20.5-7,31.9c0,1.9,0.1,3.8,0.2,5.6
			c0.8,10.4,3.6,20.2,8.1,29.1c0,0.1,0,0.1,0.1,0.2c2.9,5.6,6.5,10.9,10.6,15.6c0.1,0.1,0.1,0.1,0.2,0.2c0,0,0,0,0,0c0,0,0,0,0,0
			c1.8,2,3.7,4,5.7,5.8c0.1,0.1,0.1,0.1,0.2,0.2c6.9,6.3,14.9,11.3,23.7,14.7c8.6,3.4,18,5.2,27.8,5.2c42.3,0,76.7-34.3,76.7-76.7
			C1155.2,243.9,1120.9,209.6,1078.5,209.6z M1010.6,318.3C1010.6,318.3,1010.5,318.3,1010.6,318.3c-0.8-3.2-1.2-6.4-1.2-9.8
			c0-21.6,17.5-39.2,39.2-39.2c21.6,0,39.2,17.5,39.2,39.2c0,21.6-17.5,39.2-39.2,39.2c-10,0-19.1-3.8-26.1-9.9l0,0
			C1016.7,332.7,1012.5,326,1010.6,318.3z"/>
	</g>
	<g>
		<path class="st2" d="M1063.7,237.4c-28.3,0-52,20-57.6,46.6c-0.8,4-1.3,8.1-1.3,12.3c0,1.3,0,2.6,0.1,3.8
			c0.5,7.4,2.3,14.4,5.3,20.8c0,0.1,0,0.1,0.1,0.2c0.3,0.5,0.5,1.1,0.8,1.6c0.2,0.4,0.4,0.7,0.6,1.1c0.4,0.7,0.8,1.4,1.2,2.1
			c0.3,0.5,0.6,1,0.9,1.5c0.3,0.4,0.5,0.8,0.8,1.2c0.1,0.2,0.3,0.4,0.4,0.6c1.8,2.7,3.9,5.3,6.1,7.6c0,0,0,0,0,0c0,0,0,0,0,0
			c1.1,1.2,2.3,2.3,3.5,3.4c10.2,9,23.5,14.6,38.2,14.8c0.3,0,0.6,0,0.9,0c32.5,0,58.9-26.4,58.9-58.9
			C1122.6,263.7,1096.2,237.4,1063.7,237.4z M1048.5,347.7c-10,0-19.1-3.8-26.1-9.9l0,0c-5.7-5.1-9.9-11.8-11.9-19.4c0,0,0,0,0-0.1
			c-0.8-3.1-1.2-6.4-1.2-9.7c0-21.6,17.5-39.2,39.2-39.2c21.6,0,39.2,17.5,39.2,39.2C1087.6,330.2,1070.1,347.7,1048.5,347.7z"/>
	</g>
	<g>
		<path class="st3" d="M1087.6,308.5c0,21.6-17.5,39.2-39.2,39.2c-10,0-19.1-3.8-26.1-9.9l0,0c-5.7-5.1-9.9-11.8-11.9-19.4
			c0,0,0,0,0-0.1c-0.8-3.1-1.2-6.4-1.2-9.7c0-21.6,17.5-39.2,39.2-39.2C1070.1,269.4,1087.6,286.9,1087.6,308.5z"/>
	</g>
</g>
<path class="st0" d="M1012.7,324.4c0,0,2.4,5.5,5.8,9.6c3.6,4.4,10.8,8.6,10.8,8.6L1012.7,324.4z"/>
<g>
	<path d="M1078.8,601.9l-27.6,0.1l-0.5-198c6.5,1.3,13.2,2,20,2c2.5,0,5-0.1,7.5-0.3L1078.8,601.9z"/>
</g>
<g>
	<path d="M645,267.5c0.3-53.1-27.8-85.6-75.5-85.5c-22.6,0-52.6,11-64.7,36.5l-0.4-105.5l-28,0.1l0.8,271.1l28-0.1L505,275
		c-0.1-47.6,33.7-65.3,64.6-65.4c30.1-0.1,47.3,22,47.4,58l0.3,116.7l28-0.1L645,267.5z"/>
</g>
<g>
	<path d="M1029.1,488.3c0.3-53.1-27.8-85.6-75.5-85.5c-22.6,0.1-52.6,11-64.7,36.6l-0.1-44.4c-11.3-3.4-21-10.3-28.1-19.4l0.6,226.8
		l28-0.1l-0.3-106.6c-0.1-47.6,33.7-65.3,64.6-65.4c30.1-0.1,47.3,22,47.4,58l0.3,113.7l28-0.1L1029.1,488.3z"/>
</g>
<g>
	<path d="M849.2,260.6c-8.5-49.1-45.4-79.2-94.1-79c-55.6,0.1-98.5,39.5-98.4,101.4c0.2,61.9,43.3,102.3,98.9,102.1
		c39.3-0.1,73.1-20.7,88.9-55.4c-8.8-2.1-19.6-4.1-28-6.2c-12.1,21.3-34.6,33.9-60.9,34c-36.3,0.1-65.2-23.6-70.4-61.7l164-0.4h1.5
		c0.4-3.8,0.4-8.8,0.4-13C851,274.8,850.4,267.5,849.2,260.6z M685.1,269.9c5.3-37.2,33.7-60.7,70.1-60.8
		c35.9-0.1,61.9,23.2,67.4,60.4L685.1,269.9z"/>
</g>
<g>
	<path d="M276.2,492.5l-26.8-6.2c-13.8-3.3-33.1-9.9-28.9-32.5c2.1-13.8,17.5-23.9,36.3-23.9c16.7,0,31,8.7,34.3,23.7l27.2-0.1
		c-5.1-35.9-31.5-50.5-61.6-50.4c-31.8,0.1-59.3,18.5-63.4,46.6c-4.9,45.5,25.2,57.6,49.5,63.4l27.2,6.2c20.5,5,28,17.1,28.1,30
		c0,18.4-16.2,31-41.3,31c-33,0.1-42.3-19.1-46.1-33.7l-24.6,0.1c1.8,38,35.3,60.1,68.3,60c40.5-0.1,71.4-23.6,71.3-57.4
		C325.6,522.5,313,501.2,276.2,492.5z"/>
</g>
<g>
	<path d="M798.9,492.7l-26.8-6.2c-13.8-3.3-33-9.9-28.9-32.5c2.1-13.8,17.5-23.9,36.3-23.9c16.7,0,30.9,8.7,34.3,23.7l27.2-0.1
		c-5.1-35.9-31.5-50.5-61.6-50.4c-31.7,0.1-59.3,18.5-63.4,46.6c-4.9,45.5,25.2,57.6,49.5,63.4l27.2,6.2c20.5,5,28.1,17.1,28.1,30
		c0,18.4-16.2,31-41.3,31c-33,0.1-42.3-19.1-46-33.7l-24.6,0.1c1.8,38.1,35.3,60.1,68.3,60c40.5-0.1,71.4-23.6,71.3-57.4
		C848.3,522.7,835.8,501.4,798.9,492.7z"/>
</g>
<g>
	<path d="M1476.8,502.6c-0.1-61.9-40.4-101-96-100.9c-55.6,0.1-98.5,39.5-98.3,101.4c0.2,61.8,43.3,102.3,98.9,102.1
		c39.3-0.1,73.1-20.7,88.9-55.4c-8.8-2.1-19.6-4.1-28-6.2c-12.1,21.3-34.6,33.9-61,34C1345,577.7,1316,554,1311,516l165.5-0.4
		C1476.9,511.8,1476.9,506.8,1476.8,502.6z M1310.9,490.1c5.3-37.2,33.7-60.7,70-60.8c35.9-0.1,61.9,23.2,67.5,60.4L1310.9,490.1z"
		/>
</g>
<g>
	<path d="M921,356.1v28.8c-5.5,0-10.9-0.8-16-2.3c-5.9-1.8-11.4-4.5-16.3-7.9c-14.3-10.1-23.7-26.8-23.7-45.7V113.1h28.8V329
		C893.9,343.9,906.1,356.1,921,356.1z"/>
</g>
<g>
	<path d="M983.8,356.1v28.8c-30.8,0-55.9-25.1-55.9-55.9V113.1h28.8V329c0,14.8,11.9,26.8,26.6,27.1
		C983.4,356.1,983.6,356.1,983.8,356.1z"/>
</g>
<g>
	<path d="M477.6,407v106.3c0,47.5-33.8,65.1-64.6,65.1c-30,0-47.1-22.1-47.1-58V407h-27.9v113.4c-0.4,52.9,27.5,85.5,75.1,85.5
		c22.5,0,52.5-10.8,64.6-36.3v32.1h27.9V407H477.6z"/>
</g>
<g>
	<path d="M1271.6,503l-0.3,99.2l-28.1,0.1l-0.3-100.8l0-8c0-1.4,0-2.7,0-4c-0.4-12.8-2.6-23.3-6.2-31.9c-0.1-0.2-0.1-0.3-0.2-0.5
		c-9.2-18.5-27.3-29.5-47.6-30.5c-1.1,0-2.1-0.1-3.2-0.1c-1.1,0-2.2,0-3.2,0.1c-20.5,1-38.7,12.2-47.8,30.9c0,0,0,0.1,0,0.1
		c-3.6,8.4-5.8,18.6-6.2,31l0,0.3c0,1.5-0.1,3-0.1,4.6l0,10.5l-0.3,98.3l-28.1-0.1l-0.3-98.2l0-18.2c-0.2-29.4,10.7-52.6,28.4-67.7
		c14.6-12.5,33.9-19.5,55.4-19.8c0.7,0,1.4,0,2.2,0c0.7,0,1.4,0,2.2,0c21.6,0.4,40.8,7.3,55.4,19.8c17.7,15.1,28.6,38.3,28.4,67.7
		L1271.6,503z"/>
</g>
<g>
	<path d="M696.6,503l-0.3,99.2l-28.1,0.1l-0.3-100.8l0-8c0-1.4,0-2.7,0-4c-0.4-12.8-2.6-23.3-6.2-31.9c-0.1-0.2-0.1-0.3-0.2-0.5
		c-9.2-18.5-27.3-29.5-47.6-30.5c-1.1,0-2.1-0.1-3.2-0.1c-1.1,0-2.2,0-3.2,0.1c-20.5,1-38.7,12.2-47.8,30.9c0,0,0,0.1,0,0.1
		c-3.6,8.4-5.8,18.6-6.2,31l0,0.3c0,1.5-0.1,3-0.1,4.6l0,10.5l-0.3,98.3l-28.1-0.1l-0.3-98.2l0-18.2c-0.2-29.4,10.7-52.6,28.4-67.7
		c14.6-12.5,33.9-19.5,55.4-19.8c0.7,0,1.4,0,2.2,0s1.4,0,2.2,0c21.6,0.4,40.8,7.3,55.4,19.8c17.7,15.1,28.6,38.3,28.4,67.7
		L696.6,503z"/>
</g>
</svg>
